<?xml version="1.0" encoding="utf-8"?>
<!-- Generator: Adobe Illustrator 26.2.1, SVG Export Plug-In . SVG Version: 6.00 Build 0)  -->
<svg version="1.1" id="Layer_1" xmlns="http://www.w3.org/2000/svg" xmlns:xlink="http://www.w3.org/1999/xlink" x="0px" y="0px"
	 viewBox="0 0 20 21" style="enable-background:new 0 0 20 21;" xml:space="preserve">
<style type="text/css">
	.st0{fill-rule:evenodd;clip-rule:evenodd;fill:#00876E;}
</style>
<path class="st0" d="M4.8,15.7L4.8,15.7c-0.4-0.4-0.4-0.9,0-1.3l9.1-9.1c0.4-0.4,0.9-0.4,1.3,0l0,0c0.4,0.4,0.4,0.9,0,1.3l-9.1,9.1
	C5.8,16,5.2,16,4.8,15.7z"/>
<path class="st0" d="M15.2,15.7L15.2,15.7c0.4-0.4,0.4-0.9,0-1.3L6.1,5.3C5.8,5,5.2,5,4.8,5.3l0,0c-0.4,0.4-0.4,0.9,0,1.3l9.1,9.1
	C14.3,16.1,14.8,16.1,15.2,15.7z"/>
</svg>
